<?xml version="1.0" standalone="no"?>
<!DOCTYPE svg PUBLIC "-//W3C//DTD SVG 20010904//EN"
 "http://www.w3.org/TR/2001/REC-SVG-20010904/DTD/svg10.dtd">
<svg version="1.0" xmlns="http://www.w3.org/2000/svg"
 width="512.000000pt" height="512.000000pt" viewBox="0 0 512.000000 512.000000"
 preserveAspectRatio="xMidYMid meet">
<metadata>
Created by potrace 1.16, written by Peter Selinger 2001-2019
</metadata>
<g transform="translate(0.000000,512.000000) scale(0.100000,-0.100000)"
fill="#000000" stroke="none">
<path d="M1500 4550 c0 -11 -6 -20 -14 -20 -7 0 -19 -6 -25 -14 -20 -24 30
-71 105 -97 60 -21 69 -28 87 -66 11 -23 19 -44 16 -47 -2 -2 -30 1 -62 6 -66
12 -94 0 -67 -27 16 -15 193 -45 266 -45 50 0 43 13 79 -163 31 -154 53 -215
105 -296 56 -87 73 -123 110 -236 39 -118 58 -159 113 -240 l41 -60 7 -125 c7
-129 14 -157 90 -399 44 -138 47 -178 20 -236 -26 -57 -68 -92 -150 -125 -156
-64 -225 -140 -254 -282 l-13 -62 -86 -62 c-48 -35 -134 -102 -190 -150 -128
-107 -177 -136 -303 -175 -179 -56 -254 -102 -415 -253 -118 -112 -157 -136
-218 -136 -72 0 -114 -77 -93 -170 6 -25 11 -77 11 -117 0 -39 4 -83 10 -97
l10 -26 -88 -1 c-160 -2 -141 -15 32 -22 229 -9 326 -9 326 2 0 5 -18 12 -40
16 -29 5 -40 12 -40 25 0 10 -11 25 -25 34 -22 14 -24 20 -18 68 11 103 96
159 370 248 111 36 191 68 250 103 55 31 112 55 151 63 76 17 107 32 167 84
25 22 76 57 113 78 119 70 367 193 387 193 11 0 52 -11 90 -25 54 -20 90 -26
155 -26 109 0 169 16 360 96 85 36 164 69 176 74 20 8 19 4 -8 -46 -39 -72
-56 -136 -68 -266 -16 -165 -60 -300 -132 -406 -37 -54 -40 -103 -7 -138 12
-13 30 -24 39 -24 25 0 114 -47 139 -74 l22 -23 -157 -6 c-91 -3 -161 -10
-167 -16 -8 -8 -7 -11 4 -12 34 -3 -52 -17 -116 -19 -38 -1 -92 -5 -120 -9
-67 -10 399 -23 650 -19 186 3 190 3 193 25 2 14 -6 27 -24 40 -103 71 -214
211 -214 271 0 48 43 127 179 331 143 213 287 487 303 577 10 57 9 65 -13 110
-29 58 -64 78 -175 100 -95 19 -378 22 -473 6 -36 -6 -66 -10 -68 -8 -5 5 56
164 84 219 19 37 27 73 31 125 5 71 6 73 43 100 60 43 83 92 76 166 -2 33 -16
86 -30 118 l-25 56 21 6 c12 3 34 6 48 6 48 0 179 39 296 88 111 47 125 50
228 55 61 3 163 17 229 31 l119 25 59 -52 c32 -29 70 -69 83 -89 26 -40 43
-46 63 -26 17 17 15 51 -5 93 -25 52 -12 60 108 60 98 0 101 1 125 28 19 23
22 32 14 48 -6 11 -9 23 -6 28 13 21 -20 29 -74 19 -54 -10 -248 -2 -560 23
-158 13 -222 6 -390 -41 -165 -47 -162 -47 -231 -31 -30 7 -76 12 -101 10 -51
-4 -52 -2 -8 63 16 25 33 38 48 38 23 0 25 4 22 62 -1 25 7 49 27 79 23 35 29
55 31 119 4 67 1 83 -22 127 -14 28 -44 67 -68 87 -39 34 -117 66 -160 66 -11
0 -18 7 -18 20 0 63 -63 113 -140 114 -57 0 -102 -26 -129 -74 -30 -54 -28
-105 7 -140 l29 -28 -24 -38 c-12 -22 -28 -62 -34 -91 -10 -44 -9 -59 5 -96 9
-25 25 -52 36 -62 23 -21 16 -41 -43 -127 l-40 -58 -51 54 c-29 29 -71 63 -94
75 -24 12 -44 27 -46 34 -2 7 -9 41 -16 76 -15 83 -58 178 -108 238 -21 27
-46 73 -55 103 -9 31 -32 80 -50 110 -19 30 -59 96 -90 145 -119 193 -104 177
-192 213 -44 18 -139 62 -211 98 -72 35 -134 64 -138 64 -3 0 -6 -9 -6 -20z
m215 -106 c105 -42 198 -84 208 -92 10 -9 32 -41 49 -71 17 -31 64 -108 104
-171 39 -63 80 -142 90 -175 10 -34 34 -80 56 -106 54 -66 86 -136 107 -234
21 -95 29 -108 75 -130 99 -47 156 -137 156 -246 0 -37 -5 -80 -11 -96 -12
-28 -12 -28 -29 27 -25 82 -81 180 -102 180 -4 0 -5 -21 -2 -47 l7 -48 -51 49
c-68 65 -102 134 -150 297 -47 161 -60 187 -125 259 -64 72 -89 125 -131 294
-42 166 -52 185 -95 178 -46 -7 -85 14 -134 72 -39 45 -55 55 -138 85 -99 36
-127 51 -93 51 10 0 105 -34 209 -76z m1121 -419 c18 -14 17 -14 -9 -4 -20 9
-36 10 -65 1 -33 -10 -35 -10 -18 3 26 19 67 19 92 0z m-3 -82 c3 -5 -9 -9
-25 -10 -17 -1 -42 -10 -57 -18 -26 -16 -26 -16 2 9 27 25 71 35 80 19z m-17
-32 c-3 -5 -16 -11 -28 -14 -22 -6 -22 -5 -4 8 22 17 40 20 32 6z m190 -22
c22 -10 52 -32 65 -47 l24 -27 -25 21 c-38 32 -86 54 -154 70 l-61 14 55 -5
c30 -4 73 -15 96 -26z m35 -60 c15 -11 38 -34 51 -52 20 -30 19 -29 -24 10
-25 23 -60 49 -77 57 -17 9 -31 19 -31 21 0 8 52 -15 81 -36z m-63 -8 c20 -10
65 -49 100 -86 75 -80 80 -112 31 -185 -26 -37 -30 -52 -26 -87 5 -46 -2 -53
-28 -26 -14 13 -18 14 -25 2 -5 -7 -5 -18 0 -25 13 -15 2 -24 -28 -24 -18 0
-22 -3 -15 -12 14 -18 7 -50 -13 -65 -27 -20 -37 -16 -76 25 -61 63 -88 111
-88 156 -1 23 -7 52 -15 66 -26 46 -13 120 21 120 8 0 24 -15 35 -34 25 -43
44 -50 66 -27 10 10 34 22 53 26 30 7 32 9 15 16 -17 6 -15 8 11 8 20 1 40 11
57 29 l27 28 -33 31 c-17 18 -52 43 -77 57 -52 30 -47 35 8 7z m-219 -421 c-5
-52 -7 -115 -4 -139 6 -41 5 -44 -10 -31 -31 26 -36 48 -25 109 12 70 40 165
45 159 2 -2 0 -46 -6 -98z m1141 -71 c454 -33 437 -32 410 -40 -14 -4 -43 -8
-65 -9 -38 -2 -38 -3 15 -11 30 -4 70 -5 89 -2 24 4 32 2 27 -6 -5 -7 -42 -11
-99 -12 -155 -2 -175 -16 -139 -100 25 -60 18 -90 -8 -32 -9 21 -47 65 -87
100 l-70 63 -99 -10 c-132 -13 -223 -12 -314 1 -54 8 -83 8 -102 0 -38 -15
-35 -27 10 -39 43 -11 51 -7 -143 -60 -145 -40 -255 -61 -255 -49 0 4 15 23
33 44 l32 37 -33 -20 c-18 -10 -50 -36 -70 -56 -20 -21 -40 -38 -43 -38 -3 0
-14 18 -24 41 -10 22 -31 51 -46 63 l-27 23 55 27 c71 36 114 41 189 22 67
-17 79 -16 262 40 67 21 141 35 217 42 6 1 134 -8 285 -19z m-1310 -19 c6 -11
8 -20 6 -20 -3 0 -10 9 -16 20 -6 11 -8 20 -6 20 3 0 10 -9 16 -20z m306 -5
c20 -14 44 -25 53 -25 19 -1 -68 -49 -89 -49 -8 0 -25 7 -37 17 l-23 17 20 33
c24 39 29 39 76 7z m1417 8 c-7 -2 -19 -2 -25 0 -7 3 -2 5 12 5 14 0 19 -2 13
-5z m-1612 -63 c30 -21 62 -47 72 -56 16 -17 17 -16 17 19 l0 36 50 -46 c89
-82 141 -226 90 -253 -44 -24 -171 74 -219 168 -11 22 -29 61 -39 88 -11 27
-23 57 -27 67 -10 24 -6 22 56 -23z m1622 23 c-7 -2 -19 -2 -25 0 -7 3 -2 5
12 5 14 0 19 -2 13 -5z m-1726 -100 c-2 -16 -4 -5 -4 22 0 28 2 40 4 28 2 -13
2 -35 0 -50z m53 12 c0 -5 -5 -3 -10 5 -5 8 -10 20 -10 25 0 6 5 3 10 -5 5 -8
10 -19 10 -25z m-214 -40 c16 -21 28 -52 31 -78 4 -36 0 -47 -25 -77 l-29 -34
-7 89 c-4 50 -10 100 -13 113 -8 33 12 27 43 -13z m322 -130 l47 -50 -44 40
c-43 40 -101 119 -101 139 0 6 12 -9 26 -34 14 -25 46 -67 72 -95z m182 115
c6 -11 8 -20 6 -20 -3 0 -10 9 -16 20 -6 11 -8 20 -6 20 3 0 10 -9 16 -20z
m-353 -32 c-3 -7 -5 -2 -5 12 0 14 2 19 5 13 2 -7 2 -19 0 -25z m-30 -67 c-14
-21 -68 -73 -119 -116 l-93 -78 107 102 c59 56 110 111 113 122 4 11 9 18 12
15 3 -3 -6 -23 -20 -45z m244 -223 c26 -50 25 -94 -2 -108 -22 -12 -85 -6
-109 11 -12 8 -11 9 5 5 72 -17 85 -17 92 0 3 9 0 26 -7 38 -58 91 -70 116
-76 156 l-6 45 42 -55 c23 -30 50 -72 61 -92z m238 24 c1 -61 -17 -95 -62
-118 -32 -17 -77 -11 -77 9 0 7 18 31 41 52 52 51 69 84 70 137 l1 43 13 -35
c7 -19 14 -59 14 -88z m-174 -328 c-11 -61 -21 -44 -10 19 6 36 11 52 13 38 2
-13 1 -39 -3 -57z m-235 -223 c29 -92 24 -99 -9 -11 -15 41 -32 84 -36 95 l-8
20 17 -20 c8 -11 25 -49 36 -84z m-150 -21 c21 -11 42 -25 46 -31 5 -8 1 -8
-14 0 -32 17 -132 13 -178 -8 -103 -47 -163 -138 -165 -251 l-1 -65 -11 43
c-27 112 53 247 188 321 31 17 92 13 135 -9z m973 -71 c21 -7 50 -26 64 -43
23 -28 25 -37 21 -96 -5 -60 -14 -84 -93 -234 -48 -92 -138 -243 -200 -337
-128 -190 -195 -316 -195 -364 0 -54 127 -216 213 -271 22 -15 35 -29 31 -36
-5 -8 -12 -5 -23 8 -21 26 -81 68 -81 57 0 -5 14 -19 30 -31 40 -30 38 -42 -6
-42 -51 0 -100 34 -139 95 -30 46 -53 70 -124 127 -24 20 -27 43 -8 55 6 4 13
24 13 43 1 23 31 90 88 196 74 137 88 173 101 242 16 91 25 108 81 155 79 66
81 66 57 27 -12 -19 -41 -82 -66 -140 -25 -58 -61 -140 -81 -182 -19 -43 -34
-78 -32 -78 9 0 97 174 147 289 29 69 68 143 86 165 38 47 83 133 83 158 0 20
-21 32 -69 42 -38 7 -267 -64 -444 -138 -187 -79 -296 -97 -400 -67 -55 16
-110 62 -105 88 2 9 29 37 62 61 32 25 80 73 108 108 47 60 54 65 128 88 67
21 224 55 325 70 65 9 391 -2 428 -15z m-1400 -298 c23 -22 55 -50 72 -64 l29
-25 -39 -47 c-47 -58 -127 -111 -319 -211 -80 -41 -146 -77 -146 -79 0 -2 10
-1 23 2 20 5 21 4 7 -11 -9 -9 -49 -25 -89 -36 -40 -11 -107 -38 -149 -59 -42
-21 -149 -69 -237 -106 -227 -95 -309 -140 -361 -200 -39 -44 -44 -55 -44 -99
0 -37 6 -57 26 -83 14 -19 23 -37 20 -40 -3 -3 -15 6 -27 21 -11 14 -25 23
-31 20 -7 -4 -4 -10 6 -16 29 -16 17 -28 -29 -28 -37 0 -47 4 -62 26 -35 54
-12 234 38 297 11 15 16 27 11 27 -6 0 -20 -16 -32 -35 -27 -44 -40 -44 -40
-2 0 51 18 68 77 71 58 3 64 7 215 117 128 95 316 204 418 243 149 57 197 84
330 184 114 86 255 172 283 172 4 0 26 -18 50 -39z"/>
<path d="M2142 3865 c2 -5 24 -53 49 -105 25 -52 51 -106 58 -120 l11 -25 -6
25 c-7 33 -65 156 -93 200 -13 19 -21 31 -19 25z"/>
<path d="M2819 3656 c12 -15 12 -17 0 -14 -21 5 -24 -46 -3 -63 16 -13 17 -12
10 14 -5 20 -3 27 4 22 8 -5 10 2 8 21 -2 15 -10 30 -18 32 -13 5 -13 3 -1
-12z"/>
<path d="M3037 3573 c-4 -3 1 -11 10 -18 13 -10 10 -11 -18 -7 -33 5 -33 5
-18 -18 21 -32 29 -33 59 -11 24 19 24 20 6 40 -20 22 -28 25 -39 14z"/>
<path d="M3160 2103 c-87 -13 -187 -40 -268 -71 -51 -19 -91 -36 -90 -38 2 -1
48 9 103 22 235 58 422 78 475 51 39 -20 36 -42 -7 -55 l-38 -11 40 5 c50 7
59 16 51 49 -10 39 -59 55 -158 54 -46 -1 -94 -3 -108 -6z"/>
<path d="M1343 1431 c-71 -43 -182 -107 -246 -141 -118 -62 -148 -83 -79 -55
148 62 504 275 459 275 -2 0 -62 -35 -134 -79z"/>
<path d="M987 890 c-48 -4 -90 -10 -93 -13 -15 -15 118 -19 474 -15 245 2 394
8 405 14 15 9 3 12 -59 17 -98 9 -610 6 -727 -3z"/>
<path d="M3447 860 c-27 -5 -52 -11 -55 -14 -8 -8 452 -7 713 1 158 6 203 9
160 14 -86 10 -760 8 -818 -1z"/>
<path d="M1752 830 c-29 -4 -56 -11 -59 -14 -9 -8 470 -6 532 3 45 6 39 7 -59
14 -135 9 -343 7 -414 -3z"/>
</g>
</svg>